<svg width="333.9200073242187px" height="207.239990234375px" xmlns="http://www.w3.org/2000/svg" viewBox="83.03999633789064 -28.6199951171875 333.9200073242187 207.239990234375" style="background: rgb(21, 31, 46) none repeat scroll 0% 0%;" preserveAspectRatio="xMidYMid"><defs><filter id="editing-raise" x="-100%" y="-100%" width="300%" height="300%"><feFlood flood-color="#ffffff" result="flood-surface"></feFlood><feFlood flood-color="#000000" result="flood-extrude"></feFlood><feMorphology operator="erode" in="SourceAlpha" radius="1" result="erode"></feMorphology><feConvolveMatrix in="erode" result="shadow" order="11,8" divisor="1" kernelMatrix="0 0 0 1 1 1 1 1 0 0 0 0 0 1 0 0 0 0 0 1 0 0 0 0 1 0 0 0 0 0 1 0 0 0 0 1 0 0 0 0 0 1 0 0 0 0 1 0 0 0 0 0 1 0 0 0 0 0 1 0 0 0 1 0 0 0 0 0 0 1 1 0 1 1 0 0 0 0 0 0 0 0 1 0 0 0 0 0"></feConvolveMatrix><feOffset dx="0" dy="4" in="shadow" result="offset"></feOffset><feGaussianBlur in="offset" stdDeviation="0.2" result="blur"></feGaussianBlur><feComposite operator="in" in="flood-extrude" in2="blur" result="extrude"></feComposite><feMorphology operator="erode" in="SourceAlpha" radius="1" result="erode2"></feMorphology><feConvolveMatrix in="erode2" result="out" order="4,4" divisor="1" kernelMatrix="0 1 1 0 1 0 0 1 1 0 0 1 0 1 1 0 "></feConvolveMatrix><feComposite operator="in" in="flood-surface" in2="out" result="text"></feComposite><feMerge><feMergeNode in="extrude"></feMergeNode><feMergeNode in="text"></feMergeNode></feMerge></filter></defs><g filter="url(#editing-raise)"><g transform="translate(137.65499997138977, 110.87000322341919)"><path d="M65.21 0L55.98 0L46.84-23.64L19.34-23.64L10.20 0L0.97 0L28.52-69.51L37.66-69.51L65.21 0ZM33.06-59.36L22.19-31.08L43.99-31.08L33.06-59.36ZM75.60 0L75.60-69.51L84.69-69.51L84.69-7.44L113.16-7.44L113.16 0L75.60 0ZM125.35 0L125.35-69.51L163.92-69.51L163.92-62.07L134.43-62.07L134.43-42.88L155.32-42.88L155.32-35.43L134.43-35.43L134.43-7.44L165.03-7.44L165.03 0L125.35 0ZM176.78-2.95L179.68-10.10L179.68-10.10Q181.66-9.33 183.86-8.65L183.86-8.65L183.86-8.65Q186.06-7.98 188.36-7.49L188.36-7.49L188.36-7.49Q190.65-7.01 192.97-6.72L192.97-6.72L192.97-6.72Q195.29-6.43 197.52-6.43L197.52-6.43L197.52-6.43Q201.34-6.43 204.43-7.30L204.43-7.30L204.43-7.30Q207.52-8.17 209.75-9.84L209.75-9.84L209.75-9.84Q211.97-11.50 213.18-13.95L213.18-13.95L213.18-13.95Q214.39-16.39 214.39-19.53L214.39-19.53L214.39-19.53Q214.39-22.67 213.25-24.68L213.25-24.68L213.25-24.68Q212.12-26.68 209.96-28.04L209.96-28.04L209.96-28.04Q207.81-29.39 204.67-30.33L204.67-30.33L204.67-30.33Q201.53-31.28 197.52-32.29L197.52-32.29L197.52-32.29Q193.07-33.45 189.32-34.88L189.32-34.88L189.32-34.88Q185.58-36.30 182.85-38.58L182.85-38.58L182.85-38.58Q180.11-40.85 178.57-44.21L178.57-44.21L178.57-44.21Q177.02-47.57 177.02-52.59L177.02-52.59L177.02-52.59Q177.02-56.70 178.66-60.04L178.66-60.04L178.66-60.04Q180.31-63.37 183.30-65.72L183.30-65.72L183.30-65.72Q186.30-68.06 190.51-69.32L190.51-69.32L190.51-69.32Q194.71-70.58 199.79-70.58L199.79-70.58L199.79-70.58Q202.25-70.58 204.82-70.26L204.82-70.26L204.82-70.26Q207.38-69.95 209.89-69.42L209.89-69.42L209.89-69.42Q212.41-68.88 214.82-68.11L214.82-68.11L214.82-68.11Q217.24-67.34 219.37-66.42L219.37-66.42L216.47-59.26L216.47-59.26Q214.73-59.94 212.91-60.62L212.91-60.62L212.91-60.62Q211.10-61.29 209.07-61.83L209.07-61.83L209.07-61.83Q207.04-62.36 204.74-62.67L204.74-62.67L204.74-62.67Q202.45-62.99 199.79-62.99L199.79-62.99L199.79-62.99Q197.13-62.99 194.71-62.41L194.71-62.41L194.71-62.41Q192.30-61.83 190.43-60.59L190.43-60.59L190.43-60.59Q188.57-59.36 187.46-57.38L187.46-57.38L187.46-57.38Q186.35-55.40 186.35-52.59L186.35-52.59L186.35-52.59Q186.35-49.45 187.49-47.45L187.49-47.45L187.49-47.45Q188.62-45.44 190.77-44.09L190.77-44.09L190.77-44.09Q192.92-42.73 196.07-41.79L196.07-41.79L196.07-41.79Q199.21-40.85 203.22-39.83L203.22-39.83L203.22-39.83Q207.67-38.67 211.41-37.25L211.41-37.25L211.41-37.25Q215.16-35.82 217.89-33.55L217.89-33.55L217.89-33.55Q220.62-31.28 222.17-27.89L222.17-27.89L222.17-27.89Q223.72-24.51 223.72-19.53L223.72-19.53L223.72-19.53Q223.72-14.26 221.76-10.37L221.76-10.37L221.76-10.37Q219.80-6.48 216.30-3.92L216.30-3.92L216.30-3.92Q212.79-1.35 207.98-0.10L207.98-0.10L207.98-0.10Q203.17 1.16 197.52 1.16L197.52 1.16L197.52 1.16Q186.83 1.16 176.78-2.95L176.78-2.95Z"></path></g></g><style>text {
  font-size: 64px;
  font-family: Arial Black;
  dominant-baseline: central;
  text-anchor: middle;
}</style></svg>